<mxfile host="app.diagrams.net" modified="2024-05-27T06:54:18.873Z" agent="Mozilla/5.0 (Windows NT 10.0; Win64; x64) AppleWebKit/537.36 (KHTML, like Gecko) Chrome/125.0.0.0 Safari/537.36" version="24.4.8" etag="BaNULSiRWhbpu7m3pUI0" type="github">
  <diagram name="Page-1" id="6nCBna7TY9pcBWSnqwip">
    <mxGraphModel>
      <root>
        <mxCell id="0" />
        <mxCell id="1" parent="0" />
      </root>
    </mxGraphModel>
  </diagram>
</mxfile>
